# xmcd
# 
# Track frame offsets:
#     150
#     95753
#     168344
#     205829
#     257165
# 
# Disc length: 4477
# 
# Revision: 5
# Processed by: cddbd v1.5.2PL0 Copyright (c) Steve Scherf et al.
# Submitted via: fre:ac v1.0.31
# 
DISCID=40117b05
DTITLE=Daniel Barenboim - Mahler Symphony no.7
DYEAR=2006
DGENRE=Symphonic
TTITLE0=I- Langsam - Allegro con fuoco
TTITLE1=II- Nachtmusik I: Allegro moderato
TTITLE2=III- Scherzo: Schattenhaft
TTITLE3=IV- Nachtmusik II: Andante amoroso
TTITLE4=V- Rondo-Finale - Allegro ordinario - Allegro moderato, ma energico
EXTD=YEAR: 2006
EXTT0=
EXTT1=
EXTT2=
EXTT3=
EXTT4=
PLAYORDER=
